<svg width="549" height="90" viewBox="0 0 549 90" fill="none" xmlns="http://www.w3.org/2000/svg">
<mask id="path-1-inside-1_4_11" fill="white">
<path d="M83.5996 88H63.817L57.5733 67.4287H26.0263L19.7826 88H0L30.4954 1.17998H52.907L83.5996 88ZM30.6269 52.0495H53.1699L43.3771 20.4368C42.6761 18.0708 42.1503 16.121 41.7998 14.5875C40.6168 19.3195 36.8925 31.8069 30.6269 52.0495ZM112.909 88H94.5721V1.5086H112.909V88ZM153.026 54.8099V88H134.689V1.5086H159.861C171.56 1.5086 180.235 3.65555 185.887 7.94945C191.583 12.1995 194.431 18.6842 194.431 27.4034C194.431 32.486 193.029 37.0209 190.225 41.0081C187.465 44.9515 183.5 48.0624 178.329 50.3407C191.342 69.7509 199.821 82.304 203.764 88H183.39L162.753 54.8099H153.026ZM153.026 16.5592V39.8908H158.941C164.725 39.8908 168.997 38.9269 171.757 36.999C174.517 35.0711 175.898 32.0698 175.898 27.9949C175.898 23.9201 174.496 21.0064 171.691 19.2538C168.931 17.4574 164.549 16.5592 158.547 16.5592H153.026ZM232.678 53.8241V88H214.67V1.5086H264.225V16.5592H232.678V38.8392H261.99V53.8241H232.678ZM334.56 88H281.193V1.5086H299.53V72.8837H334.56V88ZM384.605 15.4419C377.332 15.4419 371.833 17.8955 368.109 22.8028C364.428 27.7101 362.588 34.9835 362.588 44.6229C362.588 64.0768 369.883 73.8038 384.474 73.8038C399.108 73.8038 406.425 64.0768 406.425 44.6229C406.425 25.1689 399.152 15.4419 384.605 15.4419ZM353.978 11.5642C361.164 3.98416 371.395 0.194131 384.671 0.194131C397.947 0.194131 408.09 4.02797 415.101 11.6956C422.155 19.3633 425.682 30.361 425.682 44.6886C425.682 59.0162 422.133 70.0138 415.035 77.6815C407.937 85.3492 397.75 89.183 384.474 89.183C371.242 89.183 361.076 85.3492 353.978 77.6815C346.88 70.0138 343.331 58.9724 343.331 44.5571C343.331 30.1419 346.88 19.1443 353.978 11.5642ZM548.632 1.5086L526.615 88H505.715L494.016 42.5854C493.622 41.1395 492.899 37.8534 491.847 32.727C490.796 27.6006 490.182 24.1392 490.007 22.3428C489.832 24.4897 489.24 27.9292 488.233 32.6613L486.064 42.7169L474.365 88H453.597L431.514 1.5086H449.522L460.629 48.6977C462.644 57.9427 464.047 65.5008 464.835 71.3721C465.054 69.0937 465.558 65.7418 466.347 61.3165C467.179 56.8473 468.012 53.0573 468.844 49.9464L481.463 1.5086H498.748L511.367 49.9464C511.893 51.8305 512.572 55.1604 513.404 59.9363C514.106 63.4853 514.741 67.2973 515.31 71.3721C515.661 68.7432 516.274 64.997 517.151 60.1335C518.071 55.27 518.881 51.458 519.582 48.6977L530.558 1.5086H548.632Z"/>
</mask>
<path d="M83.5996 88H63.817L57.5733 67.4287H26.0263L19.7826 88H0L30.4954 1.17998H52.907L83.5996 88ZM30.6269 52.0495H53.1699L43.3771 20.4368C42.6761 18.0708 42.1503 16.121 41.7998 14.5875C40.6168 19.3195 36.8925 31.8069 30.6269 52.0495ZM112.909 88H94.5721V1.5086H112.909V88ZM153.026 54.8099V88H134.689V1.5086H159.861C171.56 1.5086 180.235 3.65555 185.887 7.94945C191.583 12.1995 194.431 18.6842 194.431 27.4034C194.431 32.486 193.029 37.0209 190.225 41.0081C187.465 44.9515 183.5 48.0624 178.329 50.3407C191.342 69.7509 199.821 82.304 203.764 88H183.39L162.753 54.8099H153.026ZM153.026 16.5592V39.8908H158.941C164.725 39.8908 168.997 38.9269 171.757 36.999C174.517 35.0711 175.898 32.0698 175.898 27.9949C175.898 23.9201 174.496 21.0064 171.691 19.2538C168.931 17.4574 164.549 16.5592 158.547 16.5592H153.026ZM232.678 53.8241V88H214.67V1.5086H264.225V16.5592H232.678V38.8392H261.99V53.8241H232.678ZM334.56 88H281.193V1.5086H299.53V72.8837H334.56V88ZM384.605 15.4419C377.332 15.4419 371.833 17.8955 368.109 22.8028C364.428 27.7101 362.588 34.9835 362.588 44.6229C362.588 64.0768 369.883 73.8038 384.474 73.8038C399.108 73.8038 406.425 64.0768 406.425 44.6229C406.425 25.1689 399.152 15.4419 384.605 15.4419ZM353.978 11.5642C361.164 3.98416 371.395 0.194131 384.671 0.194131C397.947 0.194131 408.09 4.02797 415.101 11.6956C422.155 19.3633 425.682 30.361 425.682 44.6886C425.682 59.0162 422.133 70.0138 415.035 77.6815C407.937 85.3492 397.75 89.183 384.474 89.183C371.242 89.183 361.076 85.3492 353.978 77.6815C346.88 70.0138 343.331 58.9724 343.331 44.5571C343.331 30.1419 346.88 19.1443 353.978 11.5642ZM548.632 1.5086L526.615 88H505.715L494.016 42.5854C493.622 41.1395 492.899 37.8534 491.847 32.727C490.796 27.6006 490.182 24.1392 490.007 22.3428C489.832 24.4897 489.24 27.9292 488.233 32.6613L486.064 42.7169L474.365 88H453.597L431.514 1.5086H449.522L460.629 48.6977C462.644 57.9427 464.047 65.5008 464.835 71.3721C465.054 69.0937 465.558 65.7418 466.347 61.3165C467.179 56.8473 468.012 53.0573 468.844 49.9464L481.463 1.5086H498.748L511.367 49.9464C511.893 51.8305 512.572 55.1604 513.404 59.9363C514.106 63.4853 514.741 67.2973 515.31 71.3721C515.661 68.7432 516.274 64.997 517.151 60.1335C518.071 55.27 518.881 51.458 519.582 48.6977L530.558 1.5086H548.632Z" fill="white"/>
<path d="M83.5996 88V89H85.0138L84.5424 87.6667L83.5996 88ZM63.817 88L62.8601 88.2904L63.0755 89H63.817V88ZM57.5733 67.4287L58.5302 67.1383L58.3148 66.4287H57.5733V67.4287ZM26.0263 67.4287V66.4287H25.2848L25.0694 67.1383L26.0263 67.4287ZM19.7826 88V89H20.5241L20.7395 88.2904L19.7826 88ZM0 88L-0.94349 87.6686L-1.41114 89H0V88ZM30.4954 1.17998V0.179978H29.7868L29.552 0.848578L30.4954 1.17998ZM52.907 1.17998L53.8498 0.846673L53.6141 0.179978H52.907V1.17998ZM30.6269 52.0495L29.6716 51.7539L29.2706 53.0495H30.6269V52.0495ZM53.1699 52.0495V53.0495H54.5265L54.1251 51.7536L53.1699 52.0495ZM43.3771 20.4368L42.4183 20.7209L42.4219 20.7327L43.3771 20.4368ZM41.7998 14.5875L42.7747 14.3646L40.8297 14.3449L41.7998 14.5875ZM83.5996 87H63.817V89H83.5996V87ZM64.7739 87.7096L58.5302 67.1383L56.6164 67.7191L62.8601 88.2904L64.7739 87.7096ZM57.5733 66.4287H26.0263V68.4287H57.5733V66.4287ZM25.0694 67.1383L18.8257 87.7096L20.7395 88.2904L26.9832 67.7191L25.0694 67.1383ZM19.7826 87H0V89H19.7826V87ZM0.94349 88.3314L31.4389 1.51138L29.552 0.848578L-0.94349 87.6686L0.94349 88.3314ZM30.4954 2.17998H52.907V0.179978H30.4954V2.17998ZM51.9642 1.51328L82.6568 88.3333L84.5424 87.6667L53.8498 0.846673L51.9642 1.51328ZM30.6269 53.0495H53.1699V51.0495H30.6269V53.0495ZM54.1251 51.7536L44.3324 20.1409L42.4219 20.7327L52.2147 52.3454L54.1251 51.7536ZM44.3359 20.1527C43.6379 17.797 43.1186 15.8695 42.7747 14.3646L40.8249 14.8103C41.182 16.3725 41.7143 18.3446 42.4184 20.7209L44.3359 20.1527ZM40.8297 14.3449C39.6549 19.0438 35.9407 31.4999 29.6716 51.7539L31.5822 52.3452C37.8443 32.1139 41.5786 19.5953 42.7699 14.83L40.8297 14.3449ZM112.909 88V89H113.909V88H112.909ZM94.5721 88H93.5721V89H94.5721V88ZM94.5721 1.5086V0.508596H93.5721V1.5086H94.5721ZM112.909 1.5086H113.909V0.508596H112.909V1.5086ZM112.909 87H94.5721V89H112.909V87ZM95.5721 88V1.5086H93.5721V88H95.5721ZM94.5721 2.5086H112.909V0.508596H94.5721V2.5086ZM111.909 1.5086V88H113.909V1.5086H111.909ZM153.026 54.8099V53.8099H152.026V54.8099H153.026ZM153.026 88V89H154.026V88H153.026ZM134.689 88H133.689V89H134.689V88ZM134.689 1.5086V0.508596H133.689V1.5086H134.689ZM185.887 7.94945L185.283 8.74576L185.289 8.75092L185.887 7.94945ZM190.225 41.0081L189.407 40.4328L189.406 40.4346L190.225 41.0081ZM178.329 50.3407L177.926 49.4257L176.834 49.9067L177.499 50.8976L178.329 50.3407ZM203.764 88V89H205.673L204.586 87.4308L203.764 88ZM183.39 88L182.541 88.528L182.834 89H183.39V88ZM162.753 54.8099L163.602 54.2819L163.309 53.8099H162.753V54.8099ZM153.026 16.5592V15.5592H152.026V16.5592H153.026ZM153.026 39.8908H152.026V40.8908H153.026V39.8908ZM171.757 36.999L171.184 36.1791L171.184 36.1791L171.757 36.999ZM171.691 19.2538L171.146 20.0919L171.154 20.0969L171.161 20.1018L171.691 19.2538ZM152.026 54.8099V88H154.026V54.8099H152.026ZM153.026 87H134.689V89H153.026V87ZM135.689 88V1.5086H133.689V88H135.689ZM134.689 2.5086H159.861V0.508596H134.689V2.5086ZM159.861 2.5086C171.471 2.5086 179.885 4.64536 185.283 8.74573L186.492 7.15316C180.585 2.66573 171.649 0.508596 159.861 0.508596V2.5086ZM185.289 8.75092C190.675 12.769 193.431 18.9198 193.431 27.4034H195.431C195.431 18.4486 192.492 11.63 186.486 7.14797L185.289 8.75092ZM193.431 27.4034C193.431 32.2894 192.088 36.6215 189.407 40.4328L191.043 41.5834C193.971 37.4202 195.431 32.6826 195.431 27.4034H193.431ZM189.406 40.4346C186.767 44.2039 182.958 47.208 177.926 49.4257L178.733 51.2558C184.041 48.9167 188.162 45.699 191.044 41.5816L189.406 40.4346ZM177.499 50.8976C190.511 70.3062 198.993 82.8659 202.942 88.5692L204.586 87.4308C200.648 81.7421 192.174 69.1956 179.16 49.7839L177.499 50.8976ZM203.764 87H183.39V89H203.764V87ZM184.239 87.472L163.602 54.2819L161.904 55.3379L182.541 88.528L184.239 87.472ZM162.753 53.8099H153.026V55.8099H162.753V53.8099ZM152.026 16.5592V39.8908H154.026V16.5592H152.026ZM153.026 40.8908H158.941V38.8908H153.026V40.8908ZM158.941 40.8908C164.798 40.8908 169.319 39.9215 172.33 37.8188L171.184 36.1791C168.674 37.9322 164.651 38.8908 158.941 38.8908V40.8908ZM172.33 37.8188C175.416 35.6633 176.898 32.3184 176.898 27.9949H174.898C174.898 31.8211 173.619 34.4789 171.184 36.1791L172.33 37.8188ZM176.898 27.9949C176.898 23.6677 175.388 20.3852 172.221 18.4058L171.161 20.1018C173.603 21.6276 174.898 24.1726 174.898 27.9949H176.898ZM172.237 18.4157C169.228 16.4577 164.606 15.5592 158.547 15.5592V17.5592C164.493 17.5592 168.634 18.457 171.146 20.0919L172.237 18.4157ZM158.547 15.5592H153.026V17.5592H158.547V15.5592ZM232.678 53.8241V52.8241H231.678V53.8241H232.678ZM232.678 88V89H233.678V88H232.678ZM214.67 88H213.67V89H214.67V88ZM214.67 1.5086V0.508596H213.67V1.5086H214.67ZM264.225 1.5086H265.225V0.508596H264.225V1.5086ZM264.225 16.5592V17.5592H265.225V16.5592H264.225ZM232.678 16.5592V15.5592H231.678V16.5592H232.678ZM232.678 38.8392H231.678V39.8392H232.678V38.8392ZM261.99 38.8392H262.99V37.8392H261.99V38.8392ZM261.99 53.8241V54.8241H262.99V53.8241H261.99ZM231.678 53.8241V88H233.678V53.8241H231.678ZM232.678 87H214.67V89H232.678V87ZM215.67 88V1.5086H213.67V88H215.67ZM214.67 2.5086H264.225V0.508596H214.67V2.5086ZM263.225 1.5086V16.5592H265.225V1.5086H263.225ZM264.225 15.5592H232.678V17.5592H264.225V15.5592ZM231.678 16.5592V38.8392H233.678V16.5592H231.678ZM232.678 39.8392H261.99V37.8392H232.678V39.8392ZM260.99 38.8392V53.8241H262.99V38.8392H260.99ZM261.99 52.8241H232.678V54.8241H261.99V52.8241ZM334.56 88V89H335.56V88H334.56ZM281.193 88H280.193V89H281.193V88ZM281.193 1.5086V0.508596H280.193V1.5086H281.193ZM299.53 1.5086H300.53V0.508596H299.53V1.5086ZM299.53 72.8837H298.53V73.8837H299.53V72.8837ZM334.56 72.8837H335.56V71.8837H334.56V72.8837ZM334.56 87H281.193V89H334.56V87ZM282.193 88V1.5086H280.193V88H282.193ZM281.193 2.5086H299.53V0.508596H281.193V2.5086ZM298.53 1.5086V72.8837H300.53V1.5086H298.53ZM299.53 73.8837H334.56V71.8837H299.53V73.8837ZM333.56 72.8837V88H335.56V72.8837H333.56ZM368.109 22.8028L367.312 22.1983L367.309 22.2028L368.109 22.8028ZM353.978 11.5642L353.253 10.8762L353.248 10.8807L353.978 11.5642ZM415.101 11.6956L414.363 12.3704L414.365 12.3727L415.101 11.6956ZM415.035 77.6815L414.301 77.0022L414.301 77.0022L415.035 77.6815ZM353.978 77.6815L354.712 77.0022L353.978 77.6815ZM384.605 14.4419C377.083 14.4419 371.261 16.9951 367.312 22.1983L368.905 23.4074C372.405 18.7959 377.581 16.4419 384.605 16.4419V14.4419ZM367.309 22.2028C363.443 27.3571 361.588 34.8825 361.588 44.6229H363.588C363.588 35.0845 365.413 28.0632 368.909 23.4028L367.309 22.2028ZM361.588 44.6229C361.588 54.446 363.425 61.9957 367.259 67.1086C371.135 72.2756 376.935 74.8038 384.474 74.8038V72.8038C377.422 72.8038 372.279 70.4686 368.859 65.9086C365.399 61.2945 363.588 54.2537 363.588 44.6229H361.588ZM384.474 74.8038C392.034 74.8038 397.85 72.2764 401.736 67.1097C405.583 61.9967 407.425 54.4465 407.425 44.6229H405.425C405.425 54.2532 403.609 61.2935 400.138 65.9074C396.708 70.4678 391.548 72.8038 384.474 72.8038V74.8038ZM407.425 44.6229C407.425 34.8002 405.594 27.251 401.771 22.1383C397.907 16.9709 392.124 14.4419 384.605 14.4419V16.4419C391.633 16.4419 396.76 18.7763 400.169 23.336C403.62 27.9502 405.425 34.9915 405.425 44.6229H407.425ZM354.704 12.2522C361.653 4.9221 371.591 1.19413 384.671 1.19413V-0.805869C371.199 -0.805869 360.675 3.04622 353.253 10.8762L354.704 12.2522ZM384.671 1.19413C397.749 1.19413 407.591 4.96415 414.363 12.3704L415.839 11.0209C408.589 3.09179 398.145 -0.805869 384.671 -0.805869V1.19413ZM414.365 12.3727C421.194 19.7962 424.682 30.5168 424.682 44.6886H426.682C426.682 30.2051 423.116 18.9305 415.837 11.0186L414.365 12.3727ZM424.682 44.6886C424.682 58.8588 421.173 69.5786 414.301 77.0022L415.769 78.3608C423.093 70.449 426.682 59.1735 426.682 44.6886H424.682ZM414.301 77.0022C407.441 84.4132 397.551 88.183 384.474 88.183V90.183C397.948 90.183 408.433 86.2852 415.769 78.3608L414.301 77.0022ZM384.474 88.183C371.441 88.183 361.573 84.4138 354.712 77.0022L353.244 78.3608C360.58 86.2845 371.042 90.183 384.474 90.183V88.183ZM354.712 77.0022C347.841 69.5797 344.331 58.8169 344.331 44.5571H342.331C342.331 59.1278 345.919 70.448 353.244 78.3608L354.712 77.0022ZM344.331 44.5571C344.331 30.2964 347.841 19.5809 354.708 12.2477L353.248 10.8807C345.919 18.7077 342.331 29.9874 342.331 44.5571H344.331ZM548.632 1.5086L549.601 1.75529L549.918 0.508596H548.632V1.5086ZM526.615 88V89H527.392L527.584 88.2467L526.615 88ZM505.715 88L504.746 88.2495L504.94 89H505.715V88ZM494.016 42.5854L494.985 42.336L494.981 42.3223L494.016 42.5854ZM491.847 32.727L490.868 32.9279L490.868 32.9279L491.847 32.727ZM490.007 22.3428L491.002 22.2457L489.01 22.2614L490.007 22.3428ZM488.233 32.6613L489.21 32.8721L489.211 32.8696L488.233 32.6613ZM486.064 42.7169L487.032 42.967L487.037 42.9475L487.041 42.9277L486.064 42.7169ZM474.365 88V89H475.14L475.333 88.2501L474.365 88ZM453.597 88L452.628 88.2474L452.82 89H453.597V88ZM431.514 1.5086V0.508596H430.226L430.545 1.75598L431.514 1.5086ZM449.522 1.5086L450.495 1.27948L450.314 0.508596H449.522V1.5086ZM460.629 48.6977L461.606 48.4847L461.604 48.4766L461.602 48.4686L460.629 48.6977ZM464.835 71.3721L463.844 71.5052L465.831 71.4678L464.835 71.3721ZM466.347 61.3165L465.364 61.1333L465.362 61.141L466.347 61.3165ZM468.844 49.9464L469.81 50.2049L469.812 50.1985L468.844 49.9464ZM481.463 1.5086V0.508596H480.69L480.495 1.2565L481.463 1.5086ZM498.748 1.5086L499.716 1.2565L499.521 0.508596H498.748V1.5086ZM511.367 49.9464L510.399 50.1985L510.402 50.2069L510.404 50.2152L511.367 49.9464ZM513.404 59.9363L512.419 60.108L512.421 60.1191L512.423 60.1301L513.404 59.9363ZM515.31 71.3721L514.32 71.5105L516.302 71.5043L515.31 71.3721ZM517.151 60.1335L516.168 59.9476L516.167 59.9561L517.151 60.1335ZM519.582 48.6977L520.552 48.9438L520.554 48.934L520.556 48.9242L519.582 48.6977ZM530.558 1.5086V0.508596H529.764L529.584 1.28205L530.558 1.5086ZM547.663 1.2619L525.646 87.7533L527.584 88.2467L549.601 1.75529L547.663 1.2619ZM526.615 87H505.715V89H526.615V87ZM506.683 87.7505L494.985 42.336L493.048 42.8349L504.746 88.2495L506.683 87.7505ZM494.981 42.3223C494.597 40.9135 493.88 37.6612 492.827 32.5261L490.868 32.9279C491.918 38.0456 492.647 41.3656 493.051 42.8486L494.981 42.3223ZM492.827 32.5261C491.774 27.3923 491.172 23.9815 491.002 22.2457L489.012 22.4399C489.193 24.2969 489.818 27.8089 490.868 32.9279L492.827 32.5261ZM489.01 22.2614C488.841 24.3392 488.262 27.7244 487.255 32.453L489.211 32.8696C490.219 28.1341 490.823 24.6403 491.004 22.4241L489.01 22.2614ZM487.255 32.4504L485.086 42.506L487.041 42.9277L489.21 32.8721L487.255 32.4504ZM485.096 42.4668L473.397 87.7499L475.333 88.2501L487.032 42.967L485.096 42.4668ZM474.365 87H453.597V89H474.365V87ZM454.566 87.7526L432.483 1.26121L430.545 1.75598L452.628 88.2474L454.566 87.7526ZM431.514 2.5086H449.522V0.508596H431.514V2.5086ZM448.548 1.73771L459.656 48.9268L461.602 48.4686L450.495 1.27948L448.548 1.73771ZM459.652 48.9107C461.665 58.1429 463.061 65.6717 463.844 71.5052L465.826 71.239C465.033 65.33 463.624 57.7426 461.606 48.4847L459.652 48.9107ZM465.831 71.4678C466.046 69.2307 466.544 65.9109 467.331 61.4919L465.362 61.141C464.573 65.5728 464.063 68.9567 463.84 71.2764L465.831 71.4678ZM467.33 61.4996C468.159 57.0464 468.987 53.2831 469.81 50.2049L467.878 49.6879C467.037 52.8315 466.199 56.6483 465.364 61.1334L467.33 61.4996ZM469.812 50.1985L482.431 1.7607L480.495 1.2565L467.877 49.6943L469.812 50.1985ZM481.463 2.5086H498.748V0.508596H481.463V2.5086ZM497.781 1.7607L510.399 50.1985L512.335 49.6943L499.716 1.2565L497.781 1.7607ZM510.404 50.2152C510.915 52.0459 511.587 55.3311 512.419 60.108L514.39 59.7646C513.557 54.9898 512.871 51.6151 512.33 49.6776L510.404 50.2152ZM512.423 60.1301C513.12 63.6585 513.753 67.4518 514.32 71.5105L516.301 71.2337C515.729 67.1428 515.091 63.3122 514.386 59.7425L512.423 60.1301ZM516.302 71.5043C516.649 68.8982 517.259 65.1697 518.135 60.3108L516.167 59.9561C515.289 64.8242 514.673 68.5882 514.319 71.2399L516.302 71.5043ZM518.133 60.3194C519.052 55.4637 519.858 51.6749 520.552 48.9438L518.613 48.4515C517.905 51.2411 517.09 55.0762 516.168 59.9476L518.133 60.3194ZM520.556 48.9242L531.532 1.73514L529.584 1.28205L518.608 48.4711L520.556 48.9242ZM530.558 2.5086H548.632V0.508596H530.558V2.5086Z" fill="white" mask="url(#path-1-inside-1_4_11)"/>
</svg>
